# File created by Blade
# Date/Time:  Wed Apr 08 17:19:54 2015
# Frame Rate: 120.000 fps
#------------------------------------------------------
:FULLY-SPECIFIED
:DEGREES
1381
root 8.442650 36.796437 1.943741 188.447103 -43.517114 -161.853077
Spine 8.573254 -1.656524 -3.374242
Head -7.744067 15.022157 16.820502
LeftShoulder -7.880553 13.192648 17.275688
LeftArm 14.986930 22.088021 -77.043519
LeftForeArm 20.811184 -0.000000 22.055117
LeftHand -11.083182 -0.000000 -16.749715
LeftHandThumb1 -26.253704 0.000000 33.147579
RightShoulder -38.914598 -50.240020 26.716435
RightArm 46.194062 -21.531166 67.682299
RightForeArm 18.802198 -0.000000 0.304054
RightHand -7.148477 -0.000000 8.431089
RightHandThumb1 -24.326973 -0.000000 -32.862282
LeftUpLeg -25.765707 27.013917 -6.345623
LeftLeg 13.140109 -0.000000 -0.000000
LeftFoot -16.613883 11.963384 -8.211587
LeftToeBase 4.884383 -0.000000 -0.000000
RightUpLeg 10.541160 -0.531772 -15.378919
RightLeg 141.213249 -0.000000 -0.000000
RightFoot 41.280375 9.253448 20.225260
RightToeBase 17.946617 -0.000000 -0.000000
1382
root 8.404330 36.790824 1.913346 188.120516 -43.949646 -161.936411
Spine 8.586583 -1.577365 -3.355137
Head -7.619108 14.763823 16.892429
LeftShoulder -7.849117 13.174721 17.285720
LeftArm 15.037926 21.860671 -77.135898
LeftForeArm 20.768649 -0.000000 22.149332
LeftHand -11.148199 -0.000000 -16.757771
LeftHandThumb1 -26.253704 0.000000 33.147579
RightShoulder -38.896475 -50.221989 26.760048
RightArm 46.274940 -21.594597 67.561260
RightForeArm 18.901059 -0.000000 0.311922
RightHand -7.147737 -0.000000 8.520609
RightHandThumb1 -24.326973 -0.000000 -32.862282
LeftUpLeg -25.073734 26.704956 -6.155086
LeftLeg 12.777699 -0.000000 -0.000000
LeftFoot -16.513744 11.919066 -8.196510
LeftToeBase 4.941940 -0.000000 -0.000000
RightUpLeg 10.348282 -0.643489 -15.408850
RightLeg 141.388555 -0.000000 -0.000000
RightFoot 41.134138 9.132972 20.222458
RightToeBase 17.513896 -0.000000 -0.000000
1383
root 8.365255 36.783966 1.884355 187.787006 -44.347113 -162.020989
Spine 8.604412 -1.467170 -3.331113
Head -7.501537 14.509834 16.945281
LeftShoulder -7.849209 13.240924 17.273752
LeftArm 15.205792 21.807144 -77.129846
LeftForeArm 20.619455 0.000000 22.251222
LeftHand -11.184301 0.000000 -16.629084
LeftHandThumb1 -26.253704 0.000000 33.147579
RightShoulder -38.870017 -50.209874 26.800981
RightArm 46.383651 -21.661732 67.414048
RightForeArm 19.034130 -0.000000 0.330643
RightHand -7.187338 0.000000 8.642769
RightHandThumb1 -24.326973 -0.000000 -32.862282
LeftUpLeg -24.401480 26.462247 -5.977165
LeftLeg 12.473488 -0.000000 -0.000000
LeftFoot -16.450973 11.791263 -8.238942
LeftToeBase 5.000587 -0.000000 -0.000000
RightUpLeg 10.129527 -0.677417 -15.422347
RightLeg 141.459134 -0.000000 -0.000000
RightFoot 41.162811 9.208673 20.103657
RightToeBase 17.647980 -0.000000 -0.000000
1384
root 8.326278 36.777436 1.855754 187.431518 -44.701033 -162.094256
Spine 8.642549 -1.337880 -3.314566
Head -7.393293 14.300925 17.013226
LeftShoulder -7.848254 13.186938 17.288623
LeftArm 15.202044 21.772787 -77.197857
LeftForeArm 20.574875 0.000000 22.379858
LeftHand -11.228973 -0.000000 -16.643770
LeftHandThumb1 -26.253704 0.000000 33.147579
RightShoulder -38.750859 -50.206014 26.774145
RightArm 46.530863 -21.759354 67.262396
RightForeArm 19.151250 -0.000000 0.278498
RightHand -7.217294 -0.000000 8.677245
RightHandThumb1 -24.326973 -0.000000 -32.862282
LeftUpLeg -23.758612 26.321901 -5.820227
LeftLeg 12.216380 -0.000000 -0.000000
LeftFoot -16.376086 11.669563 -8.148817
LeftToeBase 5.045885 -0.000000 -0.000000
RightUpLeg 9.893385 -0.660570 -15.412409
RightLeg 141.611789 -0.000000 -0.000000
RightFoot 41.169999 9.113579 20.239512
RightToeBase 17.381647 -0.000000 -0.000000
